<?xml version="1.0" encoding="UTF-8"?><svg id="_レイヤー_2" xmlns="http://www.w3.org/2000/svg" viewBox="0 0 104.71 116.6"><defs><style>.cls-1{fill:#fff;}</style></defs><g id="_レイヤー_1-2"><path class="cls-1" d="M32.95,55.27c-.72.71-1.91.71-2.63,0l-17.8-17.59c-.72-.71-.72-1.88,0-2.6l5.01-4.95c.72-.71,2.15-1.3,3.16-1.3h8.25c1.02,0,1.26-.58.53-1.3l-5.9-5.83c-.72-.71-2.15-1.3-3.16-1.3h-3.19c-1.02,0-2.44.58-3.16,1.3L.54,35.08c-.72.71-.72,1.88,0,2.6l29.78,29.43c.72.71,1.91.71,2.63,0l16.97-16.78c.72-.71.72-1.88,0-2.6l-3.36-3.32c-.72-.71-1.91-.71-2.63,0l-10.98,10.85Z"/><path class="cls-1" d="M104.33,37.18c.52-.51.52-1.35,0-1.86l-14.29-14.12c-.52-.51-1.53-.93-2.26-.93h-3.97c-.73,0-1.74.42-2.26.93l-6.65,6.57c-.52.51-.34.93.38.93h9.04c.73,0,1.74.42,2.26.93l5.76,5.69c.52.51.52,1.35,0,1.86l-18.55,18.33c-.52.51-1.36.51-1.88,0l-20.34-20.08c-.52-.51-.94-.93-.94-.93s-.42-.42-.94-.93l-16.87-16.67c-.52-.51-.52-1.35,0-1.86l5.76-5.69c.52-.51,1.53-.93,2.26-.93h22.93c.73,0,1.74.42,2.26.93l5.76,5.69c.52.51.52,1.35,0,1.86l-17.49,17.28c-.52.51-.52,1.35,0,1.86l4.11,4.07c.52.51,1.36.51,1.88,0l23.48-23.21c.52-.51.52-1.35,0-1.86L69.5.93c-.52-.51-1.53-.93-2.26-.93h-29.86c-.73,0-1.74.42-2.26.93l-14.28,14.12c-.52.51-.52,1.35,0,1.86l51.07,50.45c.52.51,1.36.51,1.88,0l30.53-30.17Z"/><path class="cls-1" d="M8.9,111.7l-2.85-5.96c-.1-.2-.3-.33-.53-.33,0,0-2.13.02-2.13.02-.32,0-.58.26-.58.58v5.69H.01v-16.38h6.66c3.15,0,5.35,2.08,5.35,5.07,0,1.94-1.03,3.59-2.76,4.42-.14.07-.25.19-.3.34-.05.15-.04.31.03.45l3.05,6.1h-3.15ZM3.4,97.77c-.32,0-.58.26-.58.58v4.18c0,.32.26.58.58.58h2.79c1.79,0,2.94-1.05,2.94-2.68,0-1.96-1.51-2.66-2.92-2.66h-2.82Z"/><path class="cls-1" d="M18.66,111.98c-2.81,0-4.56-1.87-4.56-4.88v-7.15h2.75v6.87c0,1.63.98,2.68,2.5,2.68,2.3,0,2.92-2.23,2.92-3.54v-6.02h2.75v11.76h-2.66v-.11c0-.22-.13-.43-.33-.53-.08-.04-.17-.06-.26-.06-.13,0-.26.04-.36.12-.72.56-1.64.85-2.76.85Z"/><path class="cls-1" d="M34.38,111.98c-1.03,0-2.09-.34-2.91-.93-.1-.07-.22-.11-.34-.11-.09,0-.18.02-.27.06-.2.1-.32.3-.32.52v.18h-2.57v-17.26h2.73v5.64c0,.22.12.42.32.52.08.04.18.06.27.06.12,0,.24-.04.34-.11.78-.56,1.79-.88,2.78-.88,3.14,0,5.51,2.65,5.51,6.16s-2.38,6.16-5.53,6.16ZM33.84,102.14c-1.9,0-3.29,1.55-3.29,3.68s1.41,3.7,3.29,3.7,3.31-1.59,3.31-3.7-1.42-3.68-3.31-3.68Z"/><path class="cls-1" d="M42.87,116.6c-.71,0-1.34-.12-1.87-.35v-2.38c.66.39,1.32.39,1.57.39,1.02,0,1.68-.56,2.13-1.83l.31-.8c.05-.14.05-.3,0-.44l-4.72-11.26h2.99l2.59,6.95c.09.23.3.38.55.38h0c.25,0,.46-.16.55-.39l2.51-6.95h2.89l-5.3,13.28c-1.17,2.97-2.71,3.38-4.19,3.38Z"/><path class="cls-1" d="M63.83,111.7l-4.1-6.83c-.1-.16-.26-.27-.45-.28-.02,0-.03,0-.05,0-.17,0-.33.07-.44.2l-1.69,1.94c-.09.11-.14.24-.14.38v4.59h-2.78v-16.38h2.78v6.25c0,.25.15.46.38.55.07.02.13.04.2.04.17,0,.33-.07.45-.21l5.61-6.63h3.45l-5.62,6.45c-.17.19-.19.47-.06.69l5.74,9.24h-3.29Z"/><path class="cls-1" d="M72.61,111.98c-3.15,0-5.53-2.65-5.53-6.16s2.37-6.16,5.51-6.16c.97,0,1.98.32,2.79.87.1.07.22.1.33.1.09,0,.19-.02.27-.07.19-.1.31-.3.31-.52v-.11h2.73v11.76h-2.57v-.18c0-.22-.12-.42-.32-.52-.08-.04-.18-.06-.27-.06-.12,0-.24.04-.34.11-.82.59-1.88.93-2.91.93ZM73.14,102.14c-1.89,0-3.31,1.58-3.31,3.68s1.42,3.7,3.31,3.7,3.29-1.59,3.29-3.7-1.38-3.68-3.29-3.68Z"/><path class="cls-1" d="M81.95,111.7v-11.76h2.75v11.76h-2.75ZM83.32,98.14c-.89,0-1.62-.73-1.62-1.62s.71-1.62,1.62-1.62,1.62.71,1.62,1.62-.73,1.62-1.62,1.62Z"/><path class="cls-1" d="M92.71,116.6c-2.31,0-4.24-.87-5.44-2.45l1.76-1.69c.84,1.1,2.14,1.71,3.66,1.71,1.78,0,3.04-.93,3.38-2.48.05-.23-.05-.48-.24-.61-.1-.07-.21-.1-.33-.1s-.23.03-.33.1c-.76.52-1.73.82-2.66.82-3.22,0-5.65-2.63-5.65-6.11s2.39-6.13,5.55-6.13c.99,0,1.96.3,2.73.85.1.07.22.11.34.11.09,0,.18-.02.27-.06.19-.1.32-.3.32-.52v-.1h2.73v11.06c0,3.3-2.5,5.6-6.09,5.6ZM92.95,102.12c-1.89,0-3.31,1.57-3.31,3.66s1.42,3.68,3.31,3.68,3.24-1.55,3.24-3.68-1.36-3.66-3.24-3.66Z"/><path class="cls-1" d="M101.72,111.7v-11.76h2.75v11.76h-2.75ZM103.08,98.14c-.89,0-1.62-.73-1.62-1.62s.71-1.62,1.62-1.62,1.62.71,1.62,1.62-.73,1.62-1.62,1.62Z"/><path class="cls-1" d="M20.79,88.81v-4.99c0-.26-.21-.48-.48-.48h-4.27c-.26,0-.48.21-.48.48v4.99h-3.11v-13.44h3.11v4.73c0,.26.21.48.48.48h4.27c.26,0,.48-.21.48-.48v-4.73h3.11v13.44h-3.11Z"/><path class="cls-1" d="M30.59,89.04c-3.03,0-5.22-2.13-5.22-5.07s2.2-5.05,5.22-5.05,5.22,2.13,5.22,5.05-2.2,5.07-5.22,5.07ZM30.59,81.63c-1.23,0-2.13.98-2.13,2.34s.88,2.34,2.13,2.34,2.13-.96,2.13-2.34-.9-2.34-2.13-2.34Z"/><path class="cls-1" d="M43.58,88.81l-2.12-3.37c-.08-.13-.22-.21-.37-.22-.01,0-.02,0-.03,0-.14,0-.27.06-.36.17l-.28.33c-.07.09-.11.19-.11.31v2.79h-3.07v-14.1h3.07v6.74c0,.2.13.38.32.45.05.02.1.03.16.03.14,0,.28-.06.37-.18l2.07-2.61h3.66l-3.19,3.89c-.13.16-.14.39-.03.57l3.48,5.21h-3.56Z"/><path class="cls-1" d="M51.67,89.04c-2.34,0-3.73-1.47-3.73-3.94v-5.96h3.07v5.41c0,1.14.58,1.79,1.6,1.79.83,0,1.79-.57,1.79-2.17v-5.03h3.07v9.67h-2.94v-.02c0-.18-.1-.34-.26-.42-.07-.03-.14-.05-.22-.05-.1,0-.2.03-.28.09-.58.42-1.31.64-2.11.64Z"/><path class="cls-1" d="M59.44,88.81v-9.67h3.05v.13c0,.19.11.36.29.44.06.03.13.04.19.04.12,0,.23-.04.32-.13.5-.47,1.15-.71,1.91-.71.23,0,.49.04.6.08v2.96c-.25-.06-.47-.09-.66-.09-2.18,0-2.64,1.72-2.64,3.17v3.79h-3.07Z"/><path class="cls-1" d="M66.96,88.81v-9.67h3.07v9.67h-3.07ZM68.49,78.07c-.94,0-1.68-.71-1.68-1.62s.74-1.64,1.68-1.64,1.68.72,1.68,1.64-.74,1.62-1.68,1.62Z"/><path class="cls-1" d="M78.37,88.81l-2.12-3.37c-.08-.13-.22-.21-.37-.22-.01,0-.02,0-.03,0-.14,0-.27.06-.36.17l-.28.33c-.07.09-.11.19-.11.31v2.79h-3.07v-14.1h3.07v6.74c0,.2.13.38.32.45.05.02.1.03.16.03.14,0,.28-.06.37-.18l2.07-2.61h3.66l-3.19,3.89c-.13.16-.14.39-.03.57l3.48,5.21h-3.56Z"/><path class="cls-1" d="M86.45,89.04c-2.34,0-3.73-1.47-3.73-3.94v-5.96h3.07v5.41c0,1.14.58,1.79,1.6,1.79.83,0,1.79-.57,1.79-2.17v-5.03h3.07v9.67h-2.94v-.02c0-.18-.1-.34-.26-.42-.07-.03-.14-.05-.22-.05-.1,0-.2.03-.28.09-.58.42-1.31.64-2.11.64Z"/></g></svg>