<?xml version="1.0" encoding="UTF-8"?>
<svg xmlns="http://www.w3.org/2000/svg" xmlns:xlink="http://www.w3.org/1999/xlink" viewBox="0 0 500 500">
  <defs>
    <clipPath id="clippath">
      <rect width="500" height="500" fill="none"/>
    </clipPath>
  </defs>
  <g clip-path="url(#clippath)">
    <g>
      <path d="M372.83,262.64l-65.9-107.78c-6.36-10.41-16.41-17.72-28.31-20.59-11.89-2.86-24.17-.94-34.58,5.42-21.52,13.15-28.32,41.37-15.17,62.89l65.89,107.78c6.38,10.43,16.42,17.74,28.3,20.61,3.56.86,7.2,1.29,10.81,1.29,8.35,0,16.57-2.33,23.78-6.73,21.52-13.16,28.32-41.37,15.17-62.89M345.46,305.56c-5.09,3.11-11.09,4.05-16.9,2.66-5.8-1.4-10.71-4.97-13.83-10.07l-65.89-107.78c-3.11-5.08-4.05-11.08-2.65-16.9,1.4-5.81,4.98-10.72,10.06-13.83,3.51-2.14,7.52-3.28,11.62-3.28,7.87,0,15.02,3.99,19.1,10.68l65.9,107.78c6.43,10.51,3.11,24.3-7.41,30.72" fill="#18578e"/>
      <path d="M298.49,120.02c-3.53-11.7-11.41-21.32-22.18-27.09-22.23-11.91-50.01-3.52-61.93,18.71l-81.56,153.23c-11.92,22.24-3.52,50.01,18.71,61.93,6.65,3.56,14.1,5.45,21.55,5.45,4.48,0,8.94-.66,13.28-1.98,11.69-3.53,21.31-11.41,27.09-22.18l81.57-153.23c5.77-10.77,7-23.14,3.47-34.84M274.39,143.8l-81.56,153.23c-2.82,5.26-7.52,9.11-13.24,10.84-5.71,1.73-11.75,1.13-17.02-1.7-10.86-5.82-14.96-19.39-9.14-30.26l81.57-153.23c3.89-7.27,11.46-11.79,19.73-11.79,3.65,0,7.29.92,10.52,2.65,5.26,2.82,9.11,7.51,10.84,13.23,1.73,5.72,1.12,11.76-1.7,17.02" fill="#b8141e"/>
      <rect x="260.1" y="187.2" width="23.4" height="126.33" transform="translate(-90.69 178.52) rotate(-31.44)" fill="#18578e"/>
      <path d="M241.79,371.24c-.58,0-1.09.41-1.21.98l-7.84,38.79c-.16.76.43,1.48,1.21,1.48h6.27c1.28,0,2.51-.48,3.46-1.33l29.6-26.63c.88-.8,2.27,0,2.03,1.16l-3.45,16.78c-.12.57-.62.98-1.21.98h-8.45c-.59,0-1.09.41-1.21.99l-1.34,6.57c-.15.76.43,1.48,1.21,1.48h16.99c.59,0,1.09-.41,1.21-.99l7.84-38.79c.16-.76-.43-1.47-1.21-1.47h-43.9ZM262.61,382.43l-15.66,14.09c-.88.79-2.26,0-2.03-1.16l2.81-14.09c.11-.58.62-.99,1.21-.99h12.84c1.13,0,1.66,1.39.82,2.15" fill="#868687"/>
      <path d="M357.59,394.19h37.89c.58,0,1.09-.41,1.21-.98l1.35-6.57c.16-.76-.43-1.48-1.21-1.48h-37.87c-.58,0-1.09.41-1.21.98l-1.36,6.57c-.16.77.43,1.48,1.21,1.48" fill="#18578e"/>
      <path d="M331.19,370.99l12.3-1.95c.92-.15,1.66-.85,1.84-1.77l1.25-6.19c.17-.84-.55-1.59-1.4-1.46l-39.34,6.22c-.92.15-1.66.85-1.84,1.76l-1.25,6.19c-.17.84.55,1.59,1.4,1.46l14.18-2.24c.85-.13,1.57.62,1.4,1.46l-1.52,7.58c-.11.58-.62.99-1.21.99h-18.49c-.98,0-1.82.69-2.02,1.64l-1.23,5.91c-.16.77.43,1.48,1.21,1.48h18.23c.78,0,1.36.71,1.21,1.47l-3.5,17.45c-.15.76.43,1.47,1.21,1.47h6.46c.58,0,1.09-.41,1.21-.99l3.77-18.43c.12-.57.62-.98,1.21-.98h18.34c.98,0,1.82-.69,2.02-1.65l1.21-5.91c.16-.76-.43-1.48-1.21-1.48h-18.02c-.78,0-1.36-.71-1.21-1.48l1.77-8.66c.2-1,1.01-1.77,2.02-1.93" fill="#18578e"/>
      <path d="M80.18,359.35h-6.22c-.66,0-1.23.46-1.36,1.11l-.84,4.1c-.15.72-.79,1.24-1.53,1.24h-9.99c-.66,0-1.23.46-1.36,1.11l-1.3,6.25c-.18.86.48,1.67,1.36,1.67h9.05c.86,0,1.5.79,1.32,1.62l-.34,1.68c-.13.63-.68,1.08-1.32,1.08h-10.16c-.66,0-1.23.47-1.37,1.11l-6.26,30.48c-.18.86.48,1.67,1.36,1.67h18.49c1.02,0,1.98-.42,2.67-1.17l12.93-13.94c.67-.72,1.13-1.62,1.33-2.58l1.03-5.02c.15-.74.8-1.27,1.56-1.27h3.85c.78,0,1.36.71,1.21,1.47l-2.54,12.57c-.12.57-.62.98-1.21.98h-5.39c-.71,0-1.32.5-1.46,1.19l-1.21,5.99c-.19.92.52,1.78,1.46,1.78h13.32c.84,0,1.57-.59,1.74-1.42l6.23-30.31c.16-.79-.44-1.54-1.26-1.54h-24.51c-.86,0-1.5-.78-1.32-1.62l.34-1.68c.13-.63.68-1.08,1.33-1.08h25.51c.66,0,1.23-.47,1.37-1.11l1.28-6.25c.18-.86-.48-1.67-1.36-1.67h-24.12c-.99,0-1.73-.9-1.53-1.87l.6-2.91c.18-.86-.48-1.67-1.36-1.67M78.61,389.72l-.41,2.06c-.17.86-.58,1.66-1.18,2.3l-7.95,8.57c-.52.56-1.24.87-2,.87h-4.94c-.87,0-1.51-.79-1.34-1.64l2.52-12.25c.14-.66.72-1.14,1.4-1.14h.82c.68,0,1.18.62,1.05,1.28l-1.57,7.65c-.1.48.27.94.76.94h.5c.38,0,.74-.16,1-.44l8.16-8.91c.3-.33.73-.52,1.18-.52h1c.64,0,1.12.58,1,1.21" fill="#b8141e"/>
      <path d="M154.43,386.42l-3.52,15.74c-.17.75-.84,1.29-1.61,1.29h-24c-1.05,0-1.84-.97-1.61-2l8.83-40.09c.23-1.03-.56-2-1.61-2h-5.68c-.77,0-1.44.54-1.61,1.3l-10.88,49.84c-.22,1.03.56,2,1.61,2h42.1c.77,0,1.44-.54,1.61-1.3l5.3-24.06c.23-1.03-.56-2-1.61-2h-5.69c-.77,0-1.44.54-1.61,1.29" fill="#b8141e"/>
      <path d="M196.51,391.71h25.07c.58,0,1.09-.41,1.21-.98l1.34-6.57c.16-.76-.43-1.48-1.21-1.48h-25.11c-.59,0-1.09.41-1.21.99l-1.3,6.57c-.15.76.43,1.47,1.21,1.47" fill="#b8141e"/>
      <path d="M200.66,400.11h-6.55c-.58,0-1.09.41-1.21.98l-.48,2.36h0l-.04.21-.78,3.81h.03l-.7,3.54c-.15.76.43,1.47,1.21,1.47h27.65c.59,0,1.09-.41,1.21-.99l1.35-6.57c.16-.76-.43-1.48-1.21-1.48h-18.13c-.78,0-1.36-.71-1.21-1.48l.08-.39c.16-.77-.43-1.48-1.21-1.48" fill="#b8141e"/>
      <path d="M210.09,365.81h-17.19c-.83,0-1.44-.76-1.26-1.57l.62-2.8c.23-1.07-.58-2.08-1.67-2.08h-5.55c-.8,0-1.5.56-1.67,1.35l-.82,3.76c-.17.79-.87,1.35-1.67,1.35h-6.79c-.71,0-1.32.5-1.47,1.19l-1.25,6.04c-.19.93.52,1.8,1.47,1.8h5.85c.83,0,1.44.76,1.26,1.57l-7.47,34.24c-.21.94.51,1.84,1.48,1.84h5.86c.71,0,1.33-.5,1.48-1.19l7.73-35.11c.17-.79.87-1.35,1.67-1.35h18.11c.71,0,1.33-.5,1.47-1.2l1.25-6.11c.18-.89-.5-1.73-1.41-1.73" fill="#b8141e"/>
      <path d="M443.55,385.15h-4.8c-1.32,0-2.31,1.2-2.05,2.49l2.59,13.32c.25,1.29-.74,2.49-2.06,2.49h-22.38c-1.34,0-2.33-1.24-2.04-2.54l8.59-39.01c.29-1.31-.71-2.54-2.05-2.54h-4.77c-.98,0-1.84.69-2.04,1.65l-10.68,48.95c-.28,1.31.71,2.54,2.05,2.54h44.17c1.32,0,2.31-1.2,2.05-2.49l-4.52-23.15c-.19-.98-1.05-1.69-2.05-1.69" fill="#18578e"/>
    </g>
  </g>
</svg>
