<?xml version="1.0" encoding="UTF-8"?><svg id="_レイヤー_2" xmlns="http://www.w3.org/2000/svg" viewBox="0 0 257.62 66.57"><defs><style>.cls-1{fill:#d32f1e;}</style></defs><g id="_レイヤー_1-2"><path class="cls-1" d="M32.39,54.32c-.71.7-1.87.7-2.58,0l-17.49-17.28c-.71-.7-.71-1.85,0-2.55l4.92-4.86c.71-.7,2.11-1.28,3.11-1.28h8.11c1,0,1.24-.57.52-1.28l-5.79-5.73c-.71-.7-2.11-1.28-3.11-1.28h-3.13c-1,0-2.4.57-3.11,1.28L.53,34.48c-.71.7-.71,1.85,0,2.55l29.27,28.93c.71.7,1.87.7,2.58,0l16.68-16.49c.71-.7.71-1.85,0-2.55l-3.31-3.27c-.71-.7-1.87-.7-2.58,0l-10.79,10.67Z"/><path class="cls-1" d="M102.53,36.54c.51-.5.51-1.32,0-1.82l-14.04-13.87c-.51-.5-1.51-.91-2.22-.91h-3.9c-.71,0-1.71.41-2.22.91l-6.53,6.46c-.51.5-.34.91.37.91h8.88c.71,0,1.71.41,2.22.91l5.66,5.59c.51.5.51,1.32,0,1.82l-18.23,18.01c-.51.5-1.34.5-1.85,0l-19.99-19.73c-.51-.5-.92-.91-.92-.91s-.41-.41-.92-.91l-16.58-16.39c-.51-.5-.51-1.32,0-1.82l5.66-5.59c.51-.5,1.51-.91,2.22-.91h22.54c.71,0,1.71.41,2.22.91l5.66,5.59c.51.5.51,1.32,0,1.82l-17.19,16.99c-.51.5-.51,1.32,0,1.82l4.04,4c.51.5,1.34.5,1.85,0l23.08-22.81c.51-.5.51-1.32,0-1.82L68.3.91c-.51-.5-1.51-.91-2.22-.91h-29.34c-.71,0-1.71.41-2.22.91l-14.04,13.87c-.51.5-.51,1.32,0,1.82l50.19,49.58c.51.5,1.34.5,1.85,0l30.01-29.66Z"/><path d="M130.09,54.97l-3.79-7.93c-.13-.27-.4-.44-.7-.44,0,0-2.84.02-2.84.02-.43,0-.77.35-.77.78v7.58h-3.73v-21.81h8.87c4.19,0,7.12,2.77,7.12,6.75,0,2.58-1.37,4.78-3.67,5.89-.19.09-.33.25-.4.45-.07.2-.05.41.04.6l4.06,8.13h-4.19ZM122.77,36.43c-.43,0-.78.35-.78.78v5.56c0,.43.35.78.78.78h3.72c2.38,0,3.91-1.4,3.91-3.57,0-2.61-2.01-3.54-3.88-3.54h-3.75Z"/><path d="M143.09,55.34c-3.74,0-6.07-2.49-6.07-6.5v-9.52h3.67v9.15c0,2.17,1.31,3.57,3.33,3.57,3.06,0,3.88-2.96,3.88-4.71v-8.01h3.67v15.65h-3.54v-.14c0-.3-.17-.57-.44-.7-.11-.05-.22-.08-.34-.08-.17,0-.34.06-.48.17-.95.75-2.19,1.13-3.67,1.13Z"/><path d="M164.01,55.34c-1.37,0-2.79-.45-3.88-1.24-.14-.1-.29-.15-.46-.15-.12,0-.24.03-.35.09-.26.13-.42.4-.42.69v.24h-3.42v-22.98h3.64v7.5c0,.29.16.56.42.69.11.06.23.09.36.09.16,0,.32-.05.45-.15,1.04-.75,2.39-1.17,3.7-1.17,4.18,0,7.33,3.52,7.33,8.19s-3.17,8.19-7.36,8.19ZM163.3,42.25c-2.53,0-4.37,2.06-4.37,4.9s1.88,4.93,4.37,4.93,4.41-2.12,4.41-4.93-1.89-4.9-4.41-4.9Z"/><path d="M175.31,61.5c-.94,0-1.78-.16-2.5-.46v-3.17c.88.52,1.76.52,2.09.52,1.36,0,2.23-.75,2.83-2.43l.41-1.06c.07-.19.07-.4,0-.58l-6.29-14.99h3.97l3.45,9.26c.11.3.4.51.73.51h0c.33,0,.62-.21.73-.51l3.35-9.25h3.85l-7.05,17.68c-1.56,3.95-3.6,4.5-5.58,4.5Z"/><path d="M203.22,54.97l-5.46-9.09c-.13-.21-.35-.35-.6-.37-.02,0-.05,0-.07,0-.22,0-.44.1-.59.27l-2.25,2.58c-.12.14-.19.32-.19.51v6.12h-3.7v-21.81h3.7v8.32c0,.33.2.62.51.73.09.03.18.05.27.05.22,0,.44-.1.59-.28l7.47-8.82h4.59l-7.48,8.59c-.22.26-.25.63-.07.92l7.64,12.3h-4.37Z"/><path d="M214.9,55.34c-4.2,0-7.36-3.52-7.36-8.19s3.15-8.19,7.33-8.19c1.28,0,2.64.42,3.71,1.16.13.09.29.14.44.14.12,0,.25-.03.36-.09.26-.13.42-.4.42-.69v-.15h3.64v15.65h-3.42v-.24c0-.29-.16-.56-.42-.69-.11-.06-.23-.09-.35-.09-.16,0-.32.05-.46.15-1.09.79-2.51,1.24-3.88,1.24ZM215.61,42.25c-2.51,0-4.41,2.11-4.41,4.9s1.89,4.93,4.41,4.93,4.37-2.12,4.37-4.93-1.84-4.9-4.37-4.9Z"/><path d="M227.34,54.97v-15.65h3.67v15.65h-3.67ZM229.16,36.92c-1.19,0-2.16-.97-2.16-2.16s.95-2.16,2.16-2.16,2.16.95,2.16,2.16-.97,2.16-2.16,2.16Z"/><path d="M241.67,61.5c-3.07,0-5.64-1.16-7.24-3.27l2.34-2.25c1.12,1.47,2.85,2.28,4.87,2.28,2.36,0,4.04-1.23,4.5-3.3.07-.31-.06-.63-.33-.81-.13-.09-.28-.13-.43-.13s-.31.05-.44.14c-1.01.69-2.3,1.09-3.54,1.09-4.29,0-7.52-3.5-7.52-8.13s3.18-8.16,7.39-8.16c1.32,0,2.61.4,3.64,1.13.13.1.29.15.45.15.12,0,.24-.03.36-.09.26-.13.42-.4.42-.69v-.13h3.64v14.73c0,4.39-3.33,7.45-8.1,7.45ZM241.98,42.22c-2.51,0-4.41,2.09-4.41,4.87s1.89,4.9,4.41,4.9,4.31-2.06,4.31-4.9-1.81-4.87-4.31-4.87Z"/><path d="M253.65,54.97v-15.65h3.67v15.65h-3.67ZM255.47,36.92c-1.19,0-2.16-.97-2.16-2.16s.95-2.16,2.16-2.16,2.16.95,2.16,2.16-.97,2.16-2.16,2.16Z"/><path d="M129.36,24.51v-6.64c0-.35-.28-.63-.63-.63h-5.68c-.35,0-.63.28-.63.63v6.64h-4.14V6.61h4.14v6.29c0,.35.28.63.63.63h5.68c.35,0,.63-.28.63-.63v-6.29h4.14v17.9h-4.14Z"/><path d="M142.41,24.81c-4.03,0-6.95-2.84-6.95-6.75s2.92-6.73,6.95-6.73,6.95,2.83,6.95,6.73-2.92,6.75-6.95,6.75ZM142.41,14.95c-1.64,0-2.84,1.31-2.84,3.11s1.17,3.11,2.84,3.11,2.84-1.28,2.84-3.11-1.19-3.11-2.84-3.11Z"/><path d="M159.7,24.51l-2.83-4.49c-.11-.17-.29-.28-.49-.29-.01,0-.03,0-.04,0-.19,0-.36.08-.48.23l-.37.44c-.1.11-.15.26-.15.41v3.71h-4.09V5.73h4.09v8.98c0,.27.17.51.43.6.07.02.14.04.21.04.19,0,.37-.09.5-.24l2.76-3.47h4.87l-4.25,5.18c-.18.22-.19.52-.04.75l4.63,6.94h-4.74Z"/><path d="M170.47,24.81c-3.11,0-4.97-1.96-4.97-5.25v-7.93h4.09v7.2c0,1.52.78,2.38,2.13,2.38,1.1,0,2.38-.76,2.38-2.89v-6.7h4.09v12.88h-3.92v-.03c0-.24-.13-.46-.35-.56-.09-.05-.19-.07-.29-.07-.13,0-.26.04-.37.12-.77.55-1.74.85-2.81.85Z"/><path d="M180.81,24.51v-12.88h4.07v.17c0,.25.15.48.38.58.08.04.17.05.25.05.16,0,.31-.06.43-.17.67-.62,1.53-.94,2.55-.94.31,0,.66.05.8.1v3.94c-.33-.08-.63-.13-.88-.13-2.9,0-3.51,2.29-3.51,4.22v5.04h-4.09Z"/><path d="M190.82,24.51v-12.88h4.09v12.88h-4.09ZM192.85,10.2c-1.25,0-2.23-.95-2.23-2.16s.98-2.18,2.23-2.18,2.23.96,2.23,2.18-.98,2.16-2.23,2.16Z"/><path d="M206,24.51l-2.83-4.49c-.11-.17-.29-.28-.49-.29-.01,0-.03,0-.04,0-.19,0-.36.08-.48.23l-.37.44c-.1.11-.15.26-.15.41v3.71h-4.09V5.73h4.09v8.98c0,.27.17.51.43.6.07.02.14.04.21.04.19,0,.37-.09.5-.24l2.76-3.47h4.87l-4.25,5.18c-.18.22-.19.52-.04.75l4.63,6.94h-4.74Z"/><path d="M216.77,24.81c-3.11,0-4.97-1.96-4.97-5.25v-7.93h4.09v7.2c0,1.52.78,2.38,2.13,2.38,1.1,0,2.38-.76,2.38-2.89v-6.7h4.09v12.88h-3.92v-.03c0-.24-.13-.46-.35-.56-.09-.05-.19-.07-.29-.07-.13,0-.26.04-.37.12-.77.55-1.74.85-2.81.85Z"/></g></svg>