<?xml version="1.0" encoding="UTF-8"?>
<svg xmlns="http://www.w3.org/2000/svg" xmlns:xlink="http://www.w3.org/1999/xlink" viewBox="0 0 1000 1000">
  <defs>
    <clipPath id="clippath">
      <rect width="1000" height="1000" fill="none"/>
    </clipPath>
  </defs>
  <g id="clwit">
    <g clip-path="url(#clippath)">
      <g>
        <path d="M241.31,477.37l-45.11,24.81c-8.48-8.86-16.86-15.01-25.14-18.46-8.28-3.44-17.98-5.16-29.11-5.16-20.27,0-36.66,6.04-49.18,18.13-12.52,12.09-18.78,27.58-18.78,46.47s6.03,33.36,18.08,44.98c12.05,11.63,27.89,17.44,47.49,17.44,24.25,0,43.12-8.27,56.63-24.81l42.73,29.25c-23.16,30.12-55.84,45.17-98.05,45.17-37.98,0-67.71-11.25-89.21-33.74-21.5-22.49-32.25-48.82-32.25-78.99,0-20.9,5.23-40.16,15.68-57.76,10.45-17.59,25.04-31.42,43.76-41.48,18.72-10.06,39.66-15.08,62.82-15.08,21.44,0,40.69,4.27,57.76,12.8,17.07,8.54,31.03,20.68,41.88,36.42Z" fill="#3d6ca3"/>
        <path d="M379.25,433.71h53.04l43.42,122.86,46.72-122.86h32.44l45.88,121.47,43.48-121.47h53.38l-78.79,215.94h-34.34l-46.05-123.06-47.44,123.06h-33.94l-77.8-215.94Z" fill="#3d6ca3"/>
        <path d="M754.08,344.79c9.5,0,17.65,3.44,24.44,10.32,6.79,6.88,10.19,15.22,10.19,25.01s-3.36,17.9-10.1,24.71c-6.73,6.82-14.77,10.22-24.14,10.22s-17.85-3.47-24.64-10.42c-6.8-6.95-10.19-15.38-10.19-25.31s3.36-17.66,10.09-24.41c6.73-6.75,14.84-10.12,24.34-10.12ZM726.99,433.71h54.18v215.94h-54.18v-215.94Z" fill="#3d6ca3"/>
        <path d="M347.21,587.11c-11.07-11.65-16.62-26.87-16.65-45.64h0v-192.1h-54.16v192.1h0s0,.03,0,.05c0,31.59,10.98,58.44,32.95,80.54,21.97,22.1,48.48,33.15,79.55,33.15h.03v-50.58c-16.81-.11-30.72-5.94-41.71-17.52Z" fill="#3d6ca3"/>
        <path d="M980.58,480.35v-46.64h-89.48v-84.34h-54.16v192.15c0,31.59,10.98,58.44,32.95,80.54,21.97,22.1,48.49,33.15,79.55,33.15h.03v-50.58c-16.81-.11-30.71-5.94-41.71-17.52-11.07-11.65-16.62-26.87-16.65-45.64h0v-61.12h89.48Z" fill="#3d6ca3"/>
      </g>
    </g>
  </g>
</svg>
