<svg xmlns="http://www.w3.org/2000/svg" xmlns:xlink="http://www.w3.org/1999/xlink" width="120" height="120" viewBox="0 0 120 120">
  <defs>
    <clipPath id="clip-placeholder">
      <rect width="120" height="120"/>
    </clipPath>
  </defs>
  <g id="placeholder" clip-path="url(#clip-placeholder)">
    <rect width="120" height="120" fill="#fff"/>
    <rect id="長方形_2" data-name="長方形 2" width="120" height="120" fill="#eddad8" opacity="0.9"/>
    <g id="_レイヤー_1-2" transform="translate(24 20)">
      <path id="パス_1" data-name="パス 1" d="M22.582,44.3a1.3,1.3,0,0,1-1.8,0L8.58,32.243a1.257,1.257,0,0,1,0-1.782l3.434-3.392a3.576,3.576,0,0,1,2.166-.891h5.654c.7,0,.864-.4.363-.891l-4.043-4a3.576,3.576,0,0,0-2.166-.891H11.8a3.52,3.52,0,0,0-2.166.891L.37,30.461a1.257,1.257,0,0,0,0,1.782L20.779,52.412a1.3,1.3,0,0,0,1.8,0l11.63-11.5a1.257,1.257,0,0,0,0-1.782l-2.3-2.275a1.3,1.3,0,0,0-1.8,0l-7.525,7.436Z" transform="translate(0 -6.419)" fill="#fff"/>
      <path id="パス_2" data-name="パス 2" d="M77.936,25.481a.894.894,0,0,0,0-1.275l-9.793-9.677a2.545,2.545,0,0,0-1.549-.637H63.873a2.545,2.545,0,0,0-1.549.637l-4.557,4.5c-.356.35-.233.637.26.637h6.2a2.545,2.545,0,0,1,1.549.637l3.948,3.9a.894.894,0,0,1,0,1.275L57.006,38.043a.923.923,0,0,1-1.288,0L41.778,24.281c-.356-.35-.644-.637-.644-.637s-.288-.288-.644-.637L28.928,11.582a.894.894,0,0,1,0-1.275l3.948-3.9a2.545,2.545,0,0,1,1.549-.637H50.139a2.545,2.545,0,0,1,1.549.637l3.948,3.9a.894.894,0,0,1,0,1.275L43.649,23.425a.894.894,0,0,0,0,1.275l2.817,2.789a.923.923,0,0,0,1.288,0L63.845,11.582a.894.894,0,0,0,0-1.275L54.066.637A2.545,2.545,0,0,0,52.517,0H32.053A2.545,2.545,0,0,0,30.5.637l-9.787,9.677a.894.894,0,0,0,0,1.275l35,34.575a.923.923,0,0,0,1.288,0L77.929,25.488Z" transform="translate(-6.435)" fill="#fff"/>
      <path id="パス_3" data-name="パス 3" d="M6.1,106.546l-1.953-4.085a.4.4,0,0,0-.363-.226l-1.46.014a.4.4,0,0,0-.4.4v3.9H.01V95.32H4.574a3.418,3.418,0,0,1,3.667,3.475,3.282,3.282,0,0,1-1.892,3.029.406.406,0,0,0-.206.233.4.4,0,0,0,.021.308l2.09,4.181H6.1ZM2.333,97a.4.4,0,0,0-.4.4v2.865a.4.4,0,0,0,.4.4H4.245A1.838,1.838,0,1,0,4.259,97H2.326Z" transform="translate(-0.003 -29.994)" fill="#fff"/>
      <path id="パス_4" data-name="パス 4" d="M17.225,108.191a3.007,3.007,0,0,1-3.125-3.344v-4.9h1.885v4.708a1.665,1.665,0,0,0,1.713,1.837c1.576,0,2-1.528,2-2.426V99.94h1.885V108H19.761v-.075a.412.412,0,0,0-.226-.363.409.409,0,0,0-.425.041,2.993,2.993,0,0,1-1.892.583Z" transform="translate(-4.437 -31.448)" fill="#fff"/>
      <path id="パス_5" data-name="パス 5" d="M32.363,106.461a3.487,3.487,0,0,1-1.994-.637.41.41,0,0,0-.233-.075.452.452,0,0,0-.185.041.4.4,0,0,0-.219.356v.123H27.97V94.44h1.871v3.865a.4.4,0,0,0,.219.356.429.429,0,0,0,.185.041.41.41,0,0,0,.233-.075,3.329,3.329,0,0,1,1.905-.6,4.247,4.247,0,0,1-.014,8.443Zm-.37-6.744a2.546,2.546,0,0,0,0,5.058,2.544,2.544,0,0,0,0-5.058Z" transform="translate(-8.801 -29.717)" fill="#fff"/>
      <path id="パス_6" data-name="パス 6" d="M42.058,111.351a3.215,3.215,0,0,1-1.282-.24V109.48a2.066,2.066,0,0,0,1.076.267c.7,0,1.151-.384,1.46-1.254l.212-.548a.455.455,0,0,0,0-.3L40.29,99.927h2.049l1.775,4.763a.4.4,0,0,0,.377.26h0a.407.407,0,0,0,.377-.267l1.72-4.763h1.981l-3.632,9.1c-.8,2.035-1.857,2.316-2.872,2.316Z" transform="translate(-12.678 -31.442)" fill="#fff"/>
      <path id="パス_7" data-name="パス 7" d="M60.793,106.546l-2.81-4.681a.389.389,0,0,0-.308-.192h-.034a.391.391,0,0,0-.3.137l-1.158,1.33a.407.407,0,0,0-.1.26v3.146H54.18V95.32h1.905V99.6a.4.4,0,0,0,.26.377.487.487,0,0,0,.137.027.4.4,0,0,0,.308-.144l3.845-4.544H63l-3.852,4.42a.4.4,0,0,0-.041.473l3.934,6.332H60.787Z" transform="translate(-17.049 -29.994)" fill="#fff"/>
      <path id="パス_8" data-name="パス 8" d="M70.87,108.1a4.247,4.247,0,0,1-.014-8.443,3.481,3.481,0,0,1,1.912.6.4.4,0,0,0,.226.069.356.356,0,0,0,.185-.048.4.4,0,0,0,.212-.356v-.075h1.871v8.06H73.5v-.123a.4.4,0,0,0-.219-.356.429.429,0,0,0-.185-.041.41.41,0,0,0-.233.075,3.487,3.487,0,0,1-1.994.637Zm.363-6.744a2.546,2.546,0,1,0,2.255,2.522A2.35,2.35,0,0,0,71.233,101.36Z" transform="translate(-21.108 -31.36)" fill="#fff"/>
      <path id="パス_9" data-name="パス 9" d="M81.871,106.414v-8.06h1.885v8.06Zm.939-9.293a1.11,1.11,0,1,1,0-2.22,1.11,1.11,0,0,1,0,2.22Z" transform="translate(-25.708 -29.862)" fill="#fff"/>
      <path id="パス_10" data-name="パス 10" d="M90.869,111.27a4.524,4.524,0,0,1-3.728-1.679l1.206-1.158a3.066,3.066,0,0,0,2.508,1.172,2.178,2.178,0,0,0,2.316-1.7.411.411,0,0,0-.164-.418.407.407,0,0,0-.452,0,3.306,3.306,0,0,1-1.823.562,4.211,4.211,0,0,1-.069-8.388,3.238,3.238,0,0,1,1.871.583.41.41,0,0,0,.233.075.452.452,0,0,0,.185-.041.408.408,0,0,0,.219-.356v-.069h1.871v7.58A3.839,3.839,0,0,1,90.869,111.27Zm.164-9.924a2.529,2.529,0,0,0,0,5.03,2.535,2.535,0,0,0,0-5.03Z" transform="translate(-27.332 -31.36)" fill="#fff"/>
      <path id="パス_11" data-name="パス 11" d="M101.638,106.414v-8.06h1.885v8.06Zm.932-9.293a1.11,1.11,0,0,1,0-2.22,1.11,1.11,0,1,1,0,2.22Z" transform="translate(-31.926 -29.862)" fill="#fff"/>
      <path id="パス_12" data-name="パス 12" d="M18.166,84.581v-3.42a.329.329,0,0,0-.329-.329H14.91a.329.329,0,0,0-.329.329v3.42H12.45V75.37h2.131v3.242a.329.329,0,0,0,.329.329h2.926a.329.329,0,0,0,.329-.329V75.37H20.3v9.211Z" transform="translate(-3.918 -23.716)" fill="#fff"/>
      <path id="パス_13" data-name="パス 13" d="M28.947,85.856a3.469,3.469,0,1,1,0-6.936,3.469,3.469,0,1,1,0,6.936Zm0-5.078a1.611,1.611,0,0,0,0,3.207,1.611,1.611,0,0,0,0-3.207Z" transform="translate(-7.983 -24.834)" fill="#fff"/>
      <path id="パス_14" data-name="パス 14" d="M41.585,84.376l-1.453-2.31a.323.323,0,0,0-.254-.151h-.021a.315.315,0,0,0-.247.117l-.192.226a.335.335,0,0,0-.075.212v1.912h-2.1V74.72h2.1v4.619a.332.332,0,0,0,.219.308.284.284,0,0,0,.11.021.315.315,0,0,0,.254-.123l1.419-1.789h2.508l-2.186,2.666a.34.34,0,0,0-.021.391l2.385,3.571h-2.44Z" transform="translate(-11.718 -23.512)" fill="#fff"/>
      <path id="パス_15" data-name="パス 15" d="M50.5,85.925a2.415,2.415,0,0,1-2.556-2.7V79.14h2.1v3.708c0,.781.4,1.227,1.1,1.227.569,0,1.227-.391,1.227-1.487V79.14h2.1v6.627H52.456v-.014a.32.32,0,0,0-.178-.288.373.373,0,0,0-.151-.034.321.321,0,0,0-.192.062,2.442,2.442,0,0,1-1.446.439Z" transform="translate(-15.085 -24.903)" fill="#fff"/>
      <path id="パス_16" data-name="パス 16" d="M59.437,85.695V79.068h2.09v.089a.328.328,0,0,0,.2.3.317.317,0,0,0,.35-.062,1.853,1.853,0,0,1,1.309-.487,1.486,1.486,0,0,1,.411.055v2.029a1.969,1.969,0,0,0-.452-.062c-1.494,0-1.809,1.179-1.809,2.173v2.6h-2.1Z" transform="translate(-18.701 -24.83)" fill="#fff"/>
      <path id="パス_17" data-name="パス 17" d="M66.913,84.4V77.777h2.1V84.4Zm1.049-7.36a1.119,1.119,0,0,1-1.151-1.11,1.152,1.152,0,0,1,2.3,0A1.115,1.115,0,0,1,67.961,77.044Z" transform="translate(-21.023 -23.54)" fill="#fff"/>
      <path id="パス_18" data-name="パス 18" d="M76.375,84.376l-1.453-2.31a.323.323,0,0,0-.254-.151h-.021a.315.315,0,0,0-.247.117l-.192.226a.335.335,0,0,0-.075.212v1.912h-2.1V74.72h2.1v4.619a.332.332,0,0,0,.219.308.284.284,0,0,0,.11.021.315.315,0,0,0,.254-.123l1.419-1.789h2.508l-2.186,2.666a.34.34,0,0,0-.021.391l2.385,3.571h-2.44Z" transform="translate(-22.665 -23.512)" fill="#fff"/>
      <path id="パス_19" data-name="パス 19" d="M85.276,85.925a2.415,2.415,0,0,1-2.556-2.7V79.14h2.1v3.708c0,.781.4,1.227,1.1,1.227.569,0,1.227-.391,1.227-1.487V79.14h2.1v6.627H87.236v-.014a.32.32,0,0,0-.178-.288.373.373,0,0,0-.151-.034.321.321,0,0,0-.192.062,2.442,2.442,0,0,1-1.446.439Z" transform="translate(-26.029 -24.903)" fill="#fff"/>
    </g>
  </g>
</svg>
